<svg width="307" height="47" viewBox="0 0 307 47" fill="none" xmlns="http://www.w3.org/2000/svg">
<path d="M2.504 46C1.864 46 1.30933 45.7867 0.84 45.36C0.413333 44.8907 0.2 44.336 0.2 43.696V32.88C0.2 32.368 0.413333 31.8987 0.84 31.472L18.952 15.152H2.504C1.864 15.152 1.30933 14.9387 0.84 14.512C0.413333 14.0427 0.2 13.488 0.2 12.848V3.504C0.2 2.864 0.413333 2.33067 0.84 1.904C1.30933 1.43466 1.864 1.2 2.504 1.2H38.472C39.112 1.2 39.6453 1.43466 40.072 1.904C40.5413 2.33067 40.776 2.864 40.776 3.504V14.32C40.776 14.9173 40.5627 15.3867 40.136 15.728L21.576 32.048H38.472C39.112 32.048 39.6453 32.2827 40.072 32.752C40.5413 33.1787 40.776 33.712 40.776 34.352V43.696C40.776 44.336 40.5413 44.8907 40.072 45.36C39.6453 45.7867 39.112 46 38.472 46H2.504ZM69.9575 46.96C65.0082 46.96 60.6348 45.9573 56.8375 43.952C53.0828 41.9467 50.1602 39.1733 48.0695 35.632C46.0215 32.0907 44.9975 28.08 44.9975 23.6C44.9975 19.12 46.0215 15.1093 48.0695 11.568C50.1602 8.02666 53.0828 5.25333 56.8375 3.248C60.6348 1.24266 65.0082 0.239998 69.9575 0.239998C74.9068 0.239998 79.2588 1.24266 83.0135 3.248C86.8108 5.25333 89.7335 8.02666 91.7815 11.568C93.8295 15.1093 94.8535 19.12 94.8535 23.6C94.8535 28.08 93.8295 32.0907 91.7815 35.632C89.7335 39.1733 86.8108 41.9467 83.0135 43.952C79.2588 45.9573 74.9068 46.96 69.9575 46.96ZM69.9575 32.944C72.9868 32.944 75.4188 32.0907 77.2535 30.384C79.0882 28.6347 80.0055 26.3733 80.0055 23.6C80.0055 20.784 79.0882 18.5227 77.2535 16.816C75.4188 15.0667 72.9868 14.192 69.9575 14.192C66.9282 14.192 64.4748 15.0667 62.5975 16.816C60.7628 18.5653 59.8455 20.8267 59.8455 23.6C59.8455 26.3733 60.7628 28.6347 62.5975 30.384C64.4748 32.0907 66.9282 32.944 69.9575 32.944ZM102.317 46C101.677 46 101.122 45.7867 100.653 45.36C100.226 44.8907 100.013 44.336 100.013 43.696V3.504C100.013 2.864 100.226 2.33067 100.653 1.904C101.122 1.43466 101.677 1.2 102.317 1.2H124.973C128.386 1.2 131.351 1.94666 133.869 3.44C136.429 4.93333 138.391 6.96 139.757 9.52C141.122 12.0373 141.805 14.8533 141.805 17.968C141.805 20.9973 141.143 23.7707 139.821 26.288C138.541 28.8053 136.727 30.8107 134.381 32.304L139.501 41.968C139.757 42.48 139.885 42.9493 139.885 43.376C139.885 44.1013 139.607 44.72 139.053 45.232C138.541 45.744 137.879 46 137.069 46H126.637C126.295 46 125.954 45.9147 125.613 45.744C125.314 45.5307 125.079 45.2747 124.909 44.976L119.341 34.8H114.541V43.696C114.541 44.336 114.306 44.8907 113.837 45.36C113.41 45.7867 112.877 46 112.237 46H102.317ZM123.693 21.552C124.631 21.552 125.442 21.2747 126.125 20.72C126.807 20.1227 127.149 19.2267 127.149 18.032C127.149 16.88 126.807 16.0053 126.125 15.408C125.442 14.8107 124.631 14.512 123.693 14.512H114.541V21.552H123.693ZM150.192 46C149.552 46 148.997 45.7867 148.528 45.36C148.101 44.8907 147.888 44.336 147.888 43.696V3.504C147.888 2.864 148.101 2.33067 148.528 1.904C148.997 1.43466 149.552 1.2 150.192 1.2H161.264C161.605 1.2 161.925 1.30666 162.224 1.52C162.565 1.69066 162.821 1.92533 162.992 2.224L176.176 25.136L189.296 2.224C189.466 1.92533 189.701 1.69066 190 1.52C190.341 1.30666 190.682 1.2 191.024 1.2H202.096C202.736 1.2 203.269 1.43466 203.696 1.904C204.165 2.33067 204.4 2.864 204.4 3.504V43.696C204.4 44.336 204.165 44.8907 203.696 45.36C203.269 45.7867 202.736 46 202.096 46H192.176C191.536 46 190.981 45.7867 190.512 45.36C190.085 44.8907 189.872 44.336 189.872 43.696V28.08L183.088 39.856C182.917 40.1547 182.661 40.4107 182.319 40.624C182.021 40.7947 181.701 40.88 181.36 40.88H170.928C170.586 40.88 170.245 40.7947 169.904 40.624C169.605 40.4107 169.37 40.1547 169.2 39.856L162.416 28.08V43.696C162.416 44.336 162.181 44.8907 161.712 45.36C161.285 45.7867 160.752 46 160.112 46H150.192ZM234.52 46.96C229.571 46.96 225.197 45.9573 221.4 43.952C217.645 41.9467 214.723 39.1733 212.632 35.632C210.584 32.0907 209.56 28.08 209.56 23.6C209.56 19.12 210.584 15.1093 212.632 11.568C214.723 8.02666 217.645 5.25333 221.4 3.248C225.197 1.24266 229.571 0.239998 234.52 0.239998C239.469 0.239998 243.821 1.24266 247.576 3.248C251.373 5.25333 254.296 8.02666 256.344 11.568C258.392 15.1093 259.416 19.12 259.416 23.6C259.416 28.08 258.392 32.0907 256.344 35.632C254.296 39.1733 251.373 41.9467 247.576 43.952C243.821 45.9573 239.469 46.96 234.52 46.96ZM234.52 32.944C237.549 32.944 239.981 32.0907 241.816 30.384C243.651 28.6347 244.568 26.3733 244.568 23.6C244.568 20.784 243.651 18.5227 241.816 16.816C239.981 15.0667 237.549 14.192 234.52 14.192C231.491 14.192 229.037 15.0667 227.16 16.816C225.325 18.5653 224.408 20.8267 224.408 23.6C224.408 26.3733 225.325 28.6347 227.16 30.384C229.037 32.0907 231.491 32.944 234.52 32.944ZM266.879 46C266.239 46 265.684 45.7867 265.215 45.36C264.788 44.8907 264.575 44.336 264.575 43.696V3.504C264.575 2.864 264.788 2.33067 265.215 1.904C265.684 1.43466 266.239 1.2 266.879 1.2H289.535C292.948 1.2 295.914 1.94666 298.431 3.44C300.991 4.93333 302.954 6.96 304.319 9.52C305.684 12.0373 306.367 14.8533 306.367 17.968C306.367 20.9973 305.706 23.7707 304.383 26.288C303.103 28.8053 301.29 30.8107 298.943 32.304L304.063 41.968C304.319 42.48 304.447 42.9493 304.447 43.376C304.447 44.1013 304.17 44.72 303.615 45.232C303.103 45.744 302.442 46 301.631 46H291.199C290.858 46 290.516 45.9147 290.175 45.744C289.876 45.5307 289.642 45.2747 289.471 44.976L283.903 34.8H279.103V43.696C279.103 44.336 278.868 44.8907 278.399 45.36C277.972 45.7867 277.439 46 276.799 46H266.879ZM288.255 21.552C289.194 21.552 290.004 21.2747 290.687 20.72C291.37 20.1227 291.711 19.2267 291.711 18.032C291.711 16.88 291.37 16.0053 290.687 15.408C290.004 14.8107 289.194 14.512 288.255 14.512H279.103V21.552H288.255Z" fill="#FFA500"/>
</svg>
